<?xml version="1.0" standalone="no"?><!DOCTYPE svg PUBLIC "-//W3C//DTD SVG 1.1//EN" "http://www.w3.org/Graphics/SVG/1.1/DTD/svg11.dtd"><svg t="1712992067489" class="icon" viewBox="0 0 1024 1024" version="1.1" xmlns="http://www.w3.org/2000/svg" p-id="4537" xmlns:xlink="http://www.w3.org/1999/xlink" width="200" height="200"><path d="M670.293333 183.04l-128-128a42.666667 42.666667 0 0 0-14.08-8.96 42.666667 42.666667 0 0 0-32.426666 0 42.666667 42.666667 0 0 0-14.08 8.96l-128 128a42.666667 42.666667 0 0 0 60.586666 60.586667L469.333333 188.16V725.333333a42.666667 42.666667 0 0 0 85.333334 0V188.16l55.04 55.466667a42.666667 42.666667 0 0 0 60.586666 0 42.666667 42.666667 0 0 0 0-60.586667z" p-id="4538"></path><path d="M896 981.333333H128a128 128 0 0 1-128-128v-256a42.666667 42.666667 0 0 1 85.333333 0v256a42.666667 42.666667 0 0 0 42.666667 42.666667h768a42.666667 42.666667 0 0 0 42.666667-42.666667v-256a42.666667 42.666667 0 0 1 85.333333 0v256a128 128 0 0 1-128 128z" p-id="4539"></path></svg>